<svg xmlns="http://www.w3.org/2000/svg" version="1.1" xmlns:xlink="http://www.w3.org/1999/xlink" xmlns:svgjs="http://svgjs.dev/svgjs" viewBox="0 0 800 800" width="800" height="800"><g stroke-width="0.5" stroke="hsla(0, 0%, 0%, 1.00)" fill="none"><rect width="57.142857142857146" height="61.53846153846154" x="0" y="0"></rect><rect width="57.142857142857146" height="61.53846153846154" x="57.142857142857146" y="0"></rect><rect width="57.142857142857146" height="61.53846153846154" x="114.28571428571429" y="0"></rect><rect width="57.142857142857146" height="61.53846153846154" x="171.42857142857144" y="0"></rect><rect width="57.142857142857146" height="61.53846153846154" x="228.57142857142858" y="0"></rect><rect width="57.142857142857146" height="61.53846153846154" x="285.7142857142857" y="0"></rect><rect width="57.142857142857146" height="61.53846153846154" x="342.8571428571429" y="0"></rect><rect width="57.142857142857146" height="61.53846153846154" x="400.00000000000006" y="0"></rect><rect width="57.142857142857146" height="61.53846153846154" x="457.1428571428572" y="0"></rect><rect width="57.142857142857146" height="61.53846153846154" x="514.2857142857143" y="0"></rect><rect width="57.142857142857146" height="61.53846153846154" x="571.4285714285714" y="0"></rect><rect width="57.142857142857146" height="61.53846153846154" x="628.5714285714286" y="0"></rect><rect width="57.142857142857146" height="61.53846153846154" x="685.7142857142857" y="0"></rect><rect width="57.142857142857146" height="61.53846153846154" x="742.8571428571428" y="0"></rect><rect width="57.142857142857146" height="61.53846153846154" x="799.9999999999999" y="0"></rect><rect width="57.142857142857146" height="61.53846153846154" x="0" y="61.53846153846154"></rect><rect width="57.142857142857146" height="61.53846153846154" x="57.142857142857146" y="61.53846153846154"></rect><rect width="57.142857142857146" height="61.53846153846154" x="114.28571428571429" y="61.53846153846154"></rect><rect width="57.142857142857146" height="61.53846153846154" x="171.42857142857144" y="61.53846153846154"></rect><rect width="57.142857142857146" height="61.53846153846154" x="228.57142857142858" y="61.53846153846154"></rect><rect width="57.142857142857146" height="61.53846153846154" x="285.7142857142857" y="61.53846153846154"></rect><rect width="57.142857142857146" height="61.53846153846154" x="342.8571428571429" y="61.53846153846154"></rect><rect width="57.142857142857146" height="61.53846153846154" x="400.00000000000006" y="61.53846153846154"></rect><rect width="57.142857142857146" height="61.53846153846154" x="457.1428571428572" y="61.53846153846154"></rect><rect width="57.142857142857146" height="61.53846153846154" x="514.2857142857143" y="61.53846153846154"></rect><rect width="57.142857142857146" height="61.53846153846154" x="571.4285714285714" y="61.53846153846154"></rect><rect width="57.142857142857146" height="61.53846153846154" x="628.5714285714286" y="61.53846153846154"></rect><rect width="57.142857142857146" height="61.53846153846154" x="685.7142857142857" y="61.53846153846154"></rect><rect width="57.142857142857146" height="61.53846153846154" x="742.8571428571428" y="61.53846153846154"></rect><rect width="57.142857142857146" height="61.53846153846154" x="799.9999999999999" y="61.53846153846154"></rect><rect width="57.142857142857146" height="61.53846153846154" x="0" y="123.07692307692308"></rect><rect width="57.142857142857146" height="61.53846153846154" x="57.142857142857146" y="123.07692307692308"></rect><rect width="57.142857142857146" height="61.53846153846154" x="114.28571428571429" y="123.07692307692308"></rect><rect width="57.142857142857146" height="61.53846153846154" x="171.42857142857144" y="123.07692307692308"></rect><rect width="57.142857142857146" height="61.53846153846154" x="228.57142857142858" y="123.07692307692308"></rect><rect width="57.142857142857146" height="61.53846153846154" x="285.7142857142857" y="123.07692307692308"></rect><rect width="57.142857142857146" height="61.53846153846154" x="342.8571428571429" y="123.07692307692308"></rect><rect width="57.142857142857146" height="61.53846153846154" x="400.00000000000006" y="123.07692307692308"></rect><rect width="57.142857142857146" height="61.53846153846154" x="457.1428571428572" y="123.07692307692308"></rect><rect width="57.142857142857146" height="61.53846153846154" x="514.2857142857143" y="123.07692307692308"></rect><rect width="57.142857142857146" height="61.53846153846154" x="571.4285714285714" y="123.07692307692308"></rect><rect width="57.142857142857146" height="61.53846153846154" x="628.5714285714286" y="123.07692307692308"></rect><rect width="57.142857142857146" height="61.53846153846154" x="685.7142857142857" y="123.07692307692308"></rect><rect width="57.142857142857146" height="61.53846153846154" x="742.8571428571428" y="123.07692307692308"></rect><rect width="57.142857142857146" height="61.53846153846154" x="799.9999999999999" y="123.07692307692308"></rect><rect width="57.142857142857146" height="61.53846153846154" x="0" y="184.6153846153846"></rect><rect width="57.142857142857146" height="61.53846153846154" x="57.142857142857146" y="184.6153846153846"></rect><rect width="57.142857142857146" height="61.53846153846154" x="114.28571428571429" y="184.6153846153846"></rect><rect width="57.142857142857146" height="61.53846153846154" x="171.42857142857144" y="184.6153846153846"></rect><rect width="57.142857142857146" height="61.53846153846154" x="228.57142857142858" y="184.6153846153846"></rect><rect width="57.142857142857146" height="61.53846153846154" x="285.7142857142857" y="184.6153846153846"></rect><rect width="57.142857142857146" height="61.53846153846154" x="342.8571428571429" y="184.6153846153846"></rect><rect width="57.142857142857146" height="61.53846153846154" x="400.00000000000006" y="184.6153846153846"></rect><rect width="57.142857142857146" height="61.53846153846154" x="457.1428571428572" y="184.6153846153846"></rect><rect width="57.142857142857146" height="61.53846153846154" x="514.2857142857143" y="184.6153846153846"></rect><rect width="57.142857142857146" height="61.53846153846154" x="571.4285714285714" y="184.6153846153846"></rect><rect width="57.142857142857146" height="61.53846153846154" x="628.5714285714286" y="184.6153846153846"></rect><rect width="57.142857142857146" height="61.53846153846154" x="685.7142857142857" y="184.6153846153846"></rect><rect width="57.142857142857146" height="61.53846153846154" x="742.8571428571428" y="184.6153846153846"></rect><rect width="57.142857142857146" height="61.53846153846154" x="799.9999999999999" y="184.6153846153846"></rect><rect width="57.142857142857146" height="61.53846153846154" x="0" y="246.15384615384616"></rect><rect width="57.142857142857146" height="61.53846153846154" x="57.142857142857146" y="246.15384615384616"></rect><rect width="57.142857142857146" height="61.53846153846154" x="114.28571428571429" y="246.15384615384616"></rect><rect width="57.142857142857146" height="61.53846153846154" x="171.42857142857144" y="246.15384615384616"></rect><rect width="57.142857142857146" height="61.53846153846154" x="228.57142857142858" y="246.15384615384616"></rect><rect width="57.142857142857146" height="61.53846153846154" x="285.7142857142857" y="246.15384615384616"></rect><rect width="57.142857142857146" height="61.53846153846154" x="342.8571428571429" y="246.15384615384616"></rect><rect width="57.142857142857146" height="61.53846153846154" x="400.00000000000006" y="246.15384615384616"></rect><rect width="57.142857142857146" height="61.53846153846154" x="457.1428571428572" y="246.15384615384616"></rect><rect width="57.142857142857146" height="61.53846153846154" x="514.2857142857143" y="246.15384615384616"></rect><rect width="57.142857142857146" height="61.53846153846154" x="571.4285714285714" y="246.15384615384616"></rect><rect width="57.142857142857146" height="61.53846153846154" x="628.5714285714286" y="246.15384615384616"></rect><rect width="57.142857142857146" height="61.53846153846154" x="685.7142857142857" y="246.15384615384616"></rect><rect width="57.142857142857146" height="61.53846153846154" x="742.8571428571428" y="246.15384615384616"></rect><rect width="57.142857142857146" height="61.53846153846154" x="799.9999999999999" y="246.15384615384616"></rect><rect width="57.142857142857146" height="61.53846153846154" x="0" y="307.6923076923077"></rect><rect width="57.142857142857146" height="61.53846153846154" x="57.142857142857146" y="307.6923076923077"></rect><rect width="57.142857142857146" height="61.53846153846154" x="114.28571428571429" y="307.6923076923077"></rect><rect width="57.142857142857146" height="61.53846153846154" x="171.42857142857144" y="307.6923076923077"></rect><rect width="57.142857142857146" height="61.53846153846154" x="228.57142857142858" y="307.6923076923077"></rect><rect width="57.142857142857146" height="61.53846153846154" x="285.7142857142857" y="307.6923076923077"></rect><rect width="57.142857142857146" height="61.53846153846154" x="342.8571428571429" y="307.6923076923077"></rect><rect width="57.142857142857146" height="61.53846153846154" x="400.00000000000006" y="307.6923076923077"></rect><rect width="57.142857142857146" height="61.53846153846154" x="457.1428571428572" y="307.6923076923077"></rect><rect width="57.142857142857146" height="61.53846153846154" x="514.2857142857143" y="307.6923076923077"></rect><rect width="57.142857142857146" height="61.53846153846154" x="571.4285714285714" y="307.6923076923077"></rect><rect width="57.142857142857146" height="61.53846153846154" x="628.5714285714286" y="307.6923076923077"></rect><rect width="57.142857142857146" height="61.53846153846154" x="685.7142857142857" y="307.6923076923077"></rect><rect width="57.142857142857146" height="61.53846153846154" x="742.8571428571428" y="307.6923076923077"></rect><rect width="57.142857142857146" height="61.53846153846154" x="799.9999999999999" y="307.6923076923077"></rect><rect width="57.142857142857146" height="61.53846153846154" x="0" y="369.2307692307692"></rect><rect width="57.142857142857146" height="61.53846153846154" x="57.142857142857146" y="369.2307692307692"></rect><rect width="57.142857142857146" height="61.53846153846154" x="114.28571428571429" y="369.2307692307692"></rect><rect width="57.142857142857146" height="61.53846153846154" x="171.42857142857144" y="369.2307692307692"></rect><rect width="57.142857142857146" height="61.53846153846154" x="228.57142857142858" y="369.2307692307692"></rect><rect width="57.142857142857146" height="61.53846153846154" x="285.7142857142857" y="369.2307692307692"></rect><rect width="57.142857142857146" height="61.53846153846154" x="342.8571428571429" y="369.2307692307692"></rect><rect width="57.142857142857146" height="61.53846153846154" x="400.00000000000006" y="369.2307692307692"></rect><rect width="57.142857142857146" height="61.53846153846154" x="457.1428571428572" y="369.2307692307692"></rect><rect width="57.142857142857146" height="61.53846153846154" x="514.2857142857143" y="369.2307692307692"></rect><rect width="57.142857142857146" height="61.53846153846154" x="571.4285714285714" y="369.2307692307692"></rect><rect width="57.142857142857146" height="61.53846153846154" x="628.5714285714286" y="369.2307692307692"></rect><rect width="57.142857142857146" height="61.53846153846154" x="685.7142857142857" y="369.2307692307692"></rect><rect width="57.142857142857146" height="61.53846153846154" x="742.8571428571428" y="369.2307692307692"></rect><rect width="57.142857142857146" height="61.53846153846154" x="799.9999999999999" y="369.2307692307692"></rect><rect width="57.142857142857146" height="61.53846153846154" x="0" y="430.7692307692308"></rect><rect width="57.142857142857146" height="61.53846153846154" x="57.142857142857146" y="430.7692307692308"></rect><rect width="57.142857142857146" height="61.53846153846154" x="114.28571428571429" y="430.7692307692308"></rect><rect width="57.142857142857146" height="61.53846153846154" x="171.42857142857144" y="430.7692307692308"></rect><rect width="57.142857142857146" height="61.53846153846154" x="228.57142857142858" y="430.7692307692308"></rect><rect width="57.142857142857146" height="61.53846153846154" x="285.7142857142857" y="430.7692307692308"></rect><rect width="57.142857142857146" height="61.53846153846154" x="342.8571428571429" y="430.7692307692308"></rect><rect width="57.142857142857146" height="61.53846153846154" x="400.00000000000006" y="430.7692307692308"></rect><rect width="57.142857142857146" height="61.53846153846154" x="457.1428571428572" y="430.7692307692308"></rect><rect width="57.142857142857146" height="61.53846153846154" x="514.2857142857143" y="430.7692307692308"></rect><rect width="57.142857142857146" height="61.53846153846154" x="571.4285714285714" y="430.7692307692308"></rect><rect width="57.142857142857146" height="61.53846153846154" x="628.5714285714286" y="430.7692307692308"></rect><rect width="57.142857142857146" height="61.53846153846154" x="685.7142857142857" y="430.7692307692308"></rect><rect width="57.142857142857146" height="61.53846153846154" x="742.8571428571428" y="430.7692307692308"></rect><rect width="57.142857142857146" height="61.53846153846154" x="799.9999999999999" y="430.7692307692308"></rect><rect width="57.142857142857146" height="61.53846153846154" x="0" y="492.3076923076923"></rect><rect width="57.142857142857146" height="61.53846153846154" x="57.142857142857146" y="492.3076923076923"></rect><rect width="57.142857142857146" height="61.53846153846154" x="114.28571428571429" y="492.3076923076923"></rect><rect width="57.142857142857146" height="61.53846153846154" x="171.42857142857144" y="492.3076923076923"></rect><rect width="57.142857142857146" height="61.53846153846154" x="228.57142857142858" y="492.3076923076923"></rect><rect width="57.142857142857146" height="61.53846153846154" x="285.7142857142857" y="492.3076923076923"></rect><rect width="57.142857142857146" height="61.53846153846154" x="342.8571428571429" y="492.3076923076923"></rect><rect width="57.142857142857146" height="61.53846153846154" x="400.00000000000006" y="492.3076923076923"></rect><rect width="57.142857142857146" height="61.53846153846154" x="457.1428571428572" y="492.3076923076923"></rect><rect width="57.142857142857146" height="61.53846153846154" x="514.2857142857143" y="492.3076923076923"></rect><rect width="57.142857142857146" height="61.53846153846154" x="571.4285714285714" y="492.3076923076923"></rect><rect width="57.142857142857146" height="61.53846153846154" x="628.5714285714286" y="492.3076923076923"></rect><rect width="57.142857142857146" height="61.53846153846154" x="685.7142857142857" y="492.3076923076923"></rect><rect width="57.142857142857146" height="61.53846153846154" x="742.8571428571428" y="492.3076923076923"></rect><rect width="57.142857142857146" height="61.53846153846154" x="799.9999999999999" y="492.3076923076923"></rect><rect width="57.142857142857146" height="61.53846153846154" x="0" y="553.8461538461538"></rect><rect width="57.142857142857146" height="61.53846153846154" x="57.142857142857146" y="553.8461538461538"></rect><rect width="57.142857142857146" height="61.53846153846154" x="114.28571428571429" y="553.8461538461538"></rect><rect width="57.142857142857146" height="61.53846153846154" x="171.42857142857144" y="553.8461538461538"></rect><rect width="57.142857142857146" height="61.53846153846154" x="228.57142857142858" y="553.8461538461538"></rect><rect width="57.142857142857146" height="61.53846153846154" x="285.7142857142857" y="553.8461538461538"></rect><rect width="57.142857142857146" height="61.53846153846154" x="342.8571428571429" y="553.8461538461538"></rect><rect width="57.142857142857146" height="61.53846153846154" x="400.00000000000006" y="553.8461538461538"></rect><rect width="57.142857142857146" height="61.53846153846154" x="457.1428571428572" y="553.8461538461538"></rect><rect width="57.142857142857146" height="61.53846153846154" x="514.2857142857143" y="553.8461538461538"></rect><rect width="57.142857142857146" height="61.53846153846154" x="571.4285714285714" y="553.8461538461538"></rect><rect width="57.142857142857146" height="61.53846153846154" x="628.5714285714286" y="553.8461538461538"></rect><rect width="57.142857142857146" height="61.53846153846154" x="685.7142857142857" y="553.8461538461538"></rect><rect width="57.142857142857146" height="61.53846153846154" x="742.8571428571428" y="553.8461538461538"></rect><rect width="57.142857142857146" height="61.53846153846154" x="799.9999999999999" y="553.8461538461538"></rect><rect width="57.142857142857146" height="61.53846153846154" x="0" y="615.3846153846154"></rect><rect width="57.142857142857146" height="61.53846153846154" x="57.142857142857146" y="615.3846153846154"></rect><rect width="57.142857142857146" height="61.53846153846154" x="114.28571428571429" y="615.3846153846154"></rect><rect width="57.142857142857146" height="61.53846153846154" x="171.42857142857144" y="615.3846153846154"></rect><rect width="57.142857142857146" height="61.53846153846154" x="228.57142857142858" y="615.3846153846154"></rect><rect width="57.142857142857146" height="61.53846153846154" x="285.7142857142857" y="615.3846153846154"></rect><rect width="57.142857142857146" height="61.53846153846154" x="342.8571428571429" y="615.3846153846154"></rect><rect width="57.142857142857146" height="61.53846153846154" x="400.00000000000006" y="615.3846153846154"></rect><rect width="57.142857142857146" height="61.53846153846154" x="457.1428571428572" y="615.3846153846154"></rect><rect width="57.142857142857146" height="61.53846153846154" x="514.2857142857143" y="615.3846153846154"></rect><rect width="57.142857142857146" height="61.53846153846154" x="571.4285714285714" y="615.3846153846154"></rect><rect width="57.142857142857146" height="61.53846153846154" x="628.5714285714286" y="615.3846153846154"></rect><rect width="57.142857142857146" height="61.53846153846154" x="685.7142857142857" y="615.3846153846154"></rect><rect width="57.142857142857146" height="61.53846153846154" x="742.8571428571428" y="615.3846153846154"></rect><rect width="57.142857142857146" height="61.53846153846154" x="799.9999999999999" y="615.3846153846154"></rect><rect width="57.142857142857146" height="61.53846153846154" x="0" y="676.9230769230769"></rect><rect width="57.142857142857146" height="61.53846153846154" x="57.142857142857146" y="676.9230769230769"></rect><rect width="57.142857142857146" height="61.53846153846154" x="114.28571428571429" y="676.9230769230769"></rect><rect width="57.142857142857146" height="61.53846153846154" x="171.42857142857144" y="676.9230769230769"></rect><rect width="57.142857142857146" height="61.53846153846154" x="228.57142857142858" y="676.9230769230769"></rect><rect width="57.142857142857146" height="61.53846153846154" x="285.7142857142857" y="676.9230769230769"></rect><rect width="57.142857142857146" height="61.53846153846154" x="342.8571428571429" y="676.9230769230769"></rect><rect width="57.142857142857146" height="61.53846153846154" x="400.00000000000006" y="676.9230769230769"></rect><rect width="57.142857142857146" height="61.53846153846154" x="457.1428571428572" y="676.9230769230769"></rect><rect width="57.142857142857146" height="61.53846153846154" x="514.2857142857143" y="676.9230769230769"></rect><rect width="57.142857142857146" height="61.53846153846154" x="571.4285714285714" y="676.9230769230769"></rect><rect width="57.142857142857146" height="61.53846153846154" x="628.5714285714286" y="676.9230769230769"></rect><rect width="57.142857142857146" height="61.53846153846154" x="685.7142857142857" y="676.9230769230769"></rect><rect width="57.142857142857146" height="61.53846153846154" x="742.8571428571428" y="676.9230769230769"></rect><rect width="57.142857142857146" height="61.53846153846154" x="799.9999999999999" y="676.9230769230769"></rect><rect width="57.142857142857146" height="61.53846153846154" x="0" y="738.4615384615385"></rect><rect width="57.142857142857146" height="61.53846153846154" x="57.142857142857146" y="738.4615384615385"></rect><rect width="57.142857142857146" height="61.53846153846154" x="114.28571428571429" y="738.4615384615385"></rect><rect width="57.142857142857146" height="61.53846153846154" x="171.42857142857144" y="738.4615384615385"></rect><rect width="57.142857142857146" height="61.53846153846154" x="228.57142857142858" y="738.4615384615385"></rect><rect width="57.142857142857146" height="61.53846153846154" x="285.7142857142857" y="738.4615384615385"></rect><rect width="57.142857142857146" height="61.53846153846154" x="342.8571428571429" y="738.4615384615385"></rect><rect width="57.142857142857146" height="61.53846153846154" x="400.00000000000006" y="738.4615384615385"></rect><rect width="57.142857142857146" height="61.53846153846154" x="457.1428571428572" y="738.4615384615385"></rect><rect width="57.142857142857146" height="61.53846153846154" x="514.2857142857143" y="738.4615384615385"></rect><rect width="57.142857142857146" height="61.53846153846154" x="571.4285714285714" y="738.4615384615385"></rect><rect width="57.142857142857146" height="61.53846153846154" x="628.5714285714286" y="738.4615384615385"></rect><rect width="57.142857142857146" height="61.53846153846154" x="685.7142857142857" y="738.4615384615385"></rect><rect width="57.142857142857146" height="61.53846153846154" x="742.8571428571428" y="738.4615384615385"></rect><rect width="57.142857142857146" height="61.53846153846154" x="799.9999999999999" y="738.4615384615385"></rect><rect width="57.142857142857146" height="61.53846153846154" x="0" y="800"></rect><rect width="57.142857142857146" height="61.53846153846154" x="57.142857142857146" y="800"></rect><rect width="57.142857142857146" height="61.53846153846154" x="114.28571428571429" y="800"></rect><rect width="57.142857142857146" height="61.53846153846154" x="171.42857142857144" y="800"></rect><rect width="57.142857142857146" height="61.53846153846154" x="228.57142857142858" y="800"></rect><rect width="57.142857142857146" height="61.53846153846154" x="285.7142857142857" y="800"></rect><rect width="57.142857142857146" height="61.53846153846154" x="342.8571428571429" y="800"></rect><rect width="57.142857142857146" height="61.53846153846154" x="400.00000000000006" y="800"></rect><rect width="57.142857142857146" height="61.53846153846154" x="457.1428571428572" y="800"></rect><rect width="57.142857142857146" height="61.53846153846154" x="514.2857142857143" y="800"></rect><rect width="57.142857142857146" height="61.53846153846154" x="571.4285714285714" y="800"></rect><rect width="57.142857142857146" height="61.53846153846154" x="628.5714285714286" y="800"></rect><rect width="57.142857142857146" height="61.53846153846154" x="685.7142857142857" y="800"></rect><rect width="57.142857142857146" height="61.53846153846154" x="742.8571428571428" y="800"></rect><rect width="57.142857142857146" height="61.53846153846154" x="799.9999999999999" y="800"></rect></g></svg>