<svg width="808" height="292" viewBox="0 0 808 292" fill="none" xmlns="http://www.w3.org/2000/svg">
<path d="M468.32 37.298H515.93C519.334 37.298 521.036 39.046 521.036 42.542C521.036 45.946 519.334 47.648 515.93 47.648H474.944V77.18H511.376C514.78 77.18 516.482 78.928 516.482 82.424C516.482 85.828 514.78 87.53 511.376 87.53H474.944V120.65H515.93C519.334 120.65 521.036 122.398 521.036 125.894C521.036 129.298 519.334 131 515.93 131H468.32C464.732 131 462.938 129.252 462.938 125.756V42.542C462.938 39.046 464.732 37.298 468.32 37.298ZM547.414 37.298H548.794C552.382 37.298 554.176 39.092 554.176 42.68V91.808C554.176 111.864 562.686 121.892 579.706 121.892C596.726 121.892 605.236 111.864 605.236 91.808V42.68C605.236 39.092 607.03 37.298 610.618 37.298H611.722C615.494 37.298 617.38 39.092 617.38 42.68V91.256C617.38 99.352 616.046 106.62 613.378 113.06C611.722 116.832 609.56 120.098 606.892 122.858C604.224 125.526 600.544 127.734 595.852 129.482C591.252 131.23 585.87 132.104 579.706 132.104C573.542 132.104 568.114 131.23 563.422 129.482C558.822 127.734 555.188 125.526 552.52 122.858C549.852 120.098 547.69 116.832 546.034 113.06C543.366 106.62 542.032 99.352 542.032 91.256V42.68C542.032 39.092 543.826 37.298 547.414 37.298ZM656.329 47.648V80.354H675.649C681.353 80.354 685.953 78.928 689.449 76.076C693.037 73.224 694.831 69.176 694.831 63.932C694.831 58.596 693.129 54.548 689.725 51.788C686.413 49.028 681.721 47.648 675.649 47.648H656.329ZM676.063 37.298C681.399 37.298 686.229 38.08 690.553 39.644C694.877 41.116 698.603 43.968 701.731 48.2C704.859 52.432 706.423 57.998 706.423 64.898C706.423 71.706 703.893 77.41 698.833 82.01C693.773 86.61 687.609 89.186 680.341 89.738C683.561 95.81 688.391 102.664 694.831 110.3C701.363 117.936 707.573 123.778 713.461 127.826C711.621 130.77 709.229 132.242 706.285 132.242C703.341 132.242 700.443 131.276 697.591 129.344C694.831 127.412 692.301 125.158 690.001 122.582C687.701 120.006 685.079 116.556 682.135 112.232C679.007 107.632 674.637 100.318 669.025 90.29H656.329V125.894C656.329 129.298 654.489 131 650.809 131H650.119C646.531 131 644.737 129.298 644.737 125.894V42.68C644.737 39.184 646.531 37.436 650.119 37.436L675.097 37.298C675.373 37.298 675.695 37.298 676.063 37.298ZM737.582 37.298H738.824C742.412 37.298 744.206 39.046 744.206 42.542V120.65H786.71C790.206 120.65 791.954 122.398 791.954 125.894C791.954 129.298 790.206 131 786.71 131H737.582C733.994 131 732.2 129.252 732.2 125.756V42.542C732.2 39.046 733.994 37.298 737.582 37.298ZM462.938 248.894L463.766 167.06C463.766 162.552 466.02 160.298 470.528 160.298H475.082C480.142 160.298 483.73 163.196 485.846 168.992C488.422 176.26 492.424 188.036 497.852 204.32C503.372 220.604 507.742 233.208 510.962 242.132C513.906 233.852 518.138 221.662 523.658 205.562C529.27 189.462 533.548 177.272 536.492 168.992C538.516 163.196 542.058 160.298 547.118 160.298H552.086C554.202 160.298 555.904 160.942 557.192 162.23C558.48 163.426 559.124 165.036 559.124 167.06V174.65L559.676 248.894C559.676 252.298 557.882 254 554.294 254H553.052C549.464 254 547.67 252.298 547.67 248.894L548.084 168.992C532.352 211.956 522.646 238.314 518.966 248.066C517.402 252.022 514.78 254 511.1 254H510.134C506.27 254 503.648 252.022 502.268 248.066C499.784 241.258 495.46 228.746 489.296 210.53C483.224 192.222 478.302 178.376 474.53 168.992L474.944 248.894C474.944 252.298 473.15 254 469.562 254H468.32C464.732 254 462.938 252.298 462.938 248.894ZM580.696 248.894L581.524 167.06C581.524 162.552 583.778 160.298 588.286 160.298H592.84C597.9 160.298 601.488 163.196 603.604 168.992C606.18 176.26 610.182 188.036 615.61 204.32C621.13 220.604 625.5 233.208 628.72 242.132C631.664 233.852 635.896 221.662 641.416 205.562C647.028 189.462 651.306 177.272 654.25 168.992C656.274 163.196 659.816 160.298 664.876 160.298H669.844C671.96 160.298 673.662 160.942 674.95 162.23C676.238 163.426 676.882 165.036 676.882 167.06V174.65L677.434 248.894C677.434 252.298 675.64 254 672.052 254H670.81C667.222 254 665.428 252.298 665.428 248.894L665.842 168.992C650.11 211.956 640.404 238.314 636.724 248.066C635.16 252.022 632.538 254 628.858 254H627.892C624.028 254 621.406 252.022 620.026 248.066C617.542 241.258 613.218 228.746 607.054 210.53C600.982 192.222 596.06 178.376 592.288 168.992L592.702 248.894C592.702 252.298 590.908 254 587.32 254H586.078C582.49 254 580.696 252.298 580.696 248.894ZM703.698 160.298H704.94C708.62 160.298 710.46 162.092 710.46 165.68V248.756C710.46 252.252 708.62 254 704.94 254H703.698C700.202 254 698.454 252.252 698.454 248.756V165.68C698.454 162.092 700.202 160.298 703.698 160.298ZM736.689 160.298H737.931C741.519 160.298 743.313 162.092 743.313 165.68V201.698C759.229 188.818 771.741 176.352 780.849 164.3C782.689 161.632 785.495 160.298 789.267 160.298H794.097C796.305 160.298 797.409 161.218 797.409 163.058C797.409 163.978 797.087 164.76 796.443 165.404C784.023 179.48 770.453 192.314 755.733 203.906C763.093 208.874 770.683 215.314 778.503 223.226C786.323 231.046 793.315 239.464 799.479 248.48C800.123 249.4 800.445 250.32 800.445 251.24C800.445 253.08 799.203 254 796.719 254H790.923C788.439 254 786.093 252.436 783.885 249.308C772.293 232.84 758.769 219.086 743.313 208.046V248.756C743.313 252.252 741.519 254 737.931 254H736.689C733.101 254 731.307 252.252 731.307 248.756V165.68C731.307 162.092 733.101 160.298 736.689 160.298Z" fill="#0EA5E9"/>
<mask id="path-2-inside-1_13_17" fill="white">
<path fill-rule="evenodd" clip-rule="evenodd" d="M192.054 0.794003C149.886 5.278 113.256 23.981 87.7443 54.054C75.7263 68.221 65.4403 86.25 60.1813 102.365C57.1723 111.587 53.6343 129.639 54.6383 130.644C54.9563 130.961 57.7683 129.81 60.8873 128.085C66.4843 124.99 66.5813 124.859 68.2873 118.09C72.5133 101.323 79.4793 85.756 88.8093 72.23C91.8443 67.83 94.6413 63.878 95.0253 63.447C95.4093 63.017 99.7363 64.639 104.641 67.052C109.545 69.465 116.483 72.474 120.058 73.74C123.633 75.005 126.958 76.393 127.447 76.824C127.954 77.271 127.187 82.192 125.657 88.296C124.184 94.175 123.227 99.233 123.531 99.536C124.544 100.549 135.026 96.658 135.954 94.924C136.457 93.984 137.555 90.587 138.394 87.375C139.233 84.163 140.178 81.277 140.495 80.96C140.812 80.643 146.849 81.6 153.911 83.086L166.752 85.788L178.655 82.224C193.296 77.84 193.448 77.787 192.897 77.236C192.651 76.989 186.256 76.101 178.687 75.262C165.892 73.844 146.325 70.33 145.253 69.258C144.612 68.617 148.524 59.547 152.711 51.967C163.986 31.555 181.058 16.436 196.836 12.891L201.058 11.943V43.45V74.957L205.686 74.263C208.231 73.881 210.931 73.332 211.686 73.043C212.807 72.612 213.058 66.958 213.058 42.123C213.058 18.457 213.335 11.738 214.308 11.764C217.048 11.84 229.997 17.583 235.12 20.996C238.111 22.988 242.674 26.781 245.26 29.424C249.487 33.745 259.69 48.375 264.34 56.782C266.09 59.945 266.222 59.993 271.695 59.428C274.761 59.112 277.536 58.585 277.864 58.257C279.392 56.729 265.482 34.581 256.215 23.788C253.826 21.006 252.286 18.73 252.792 18.73C254.275 18.73 265.896 23.624 273.52 27.458C283.473 32.465 289.118 36.223 300.829 45.643L311.078 53.887L317.568 53.192C321.137 52.81 324.058 52.166 324.058 51.76C324.058 51.355 319.819 46.923 314.638 41.911C283.998 12.27 235.889 -3.867 192.054 0.794003ZM152.898 22.055C135.779 28.96 117.41 40.538 107.735 50.52L103.911 54.464L118.105 60.144C125.911 63.267 132.406 65.69 132.537 65.526C132.669 65.363 135.062 60.505 137.855 54.73C144.305 41.393 149.82 33.08 157.894 24.521C161.417 20.786 164.133 17.736 163.929 17.743C163.725 17.75 158.761 19.691 152.898 22.055ZM325.558 59.375C274.228 64.578 218.991 76.611 161.139 95.193C108.608 112.066 55.1203 136.612 28.9693 155.846C1.25434 176.231 -6.7057 193.399 5.65529 206.127C13.1153 213.808 24.7793 217.361 47.8203 218.971C59.3643 219.777 64.3913 219.797 65.1513 219.037C66.3003 217.888 63.4023 211.081 60.8813 209.008C60.1533 208.41 53.4833 207.403 46.0583 206.772C26.8653 205.14 17.2833 202.055 13.5083 196.293C11.0973 192.615 14.1233 185.758 21.7053 177.722C28.8643 170.133 36.8103 164.407 55.0583 153.691C120.158 115.461 237.472 79.595 323.424 71.645C337.756 70.319 375.3 70.979 383.558 72.702C390.574 74.166 399.291 78.741 400.992 81.853C402.261 84.174 402.223 85.009 400.67 89.075C397.641 97.006 389.553 104.686 369.763 118.422C365.407 121.445 365.192 121.814 365.676 125.422C366.851 134.172 366.705 133.963 370.331 132.096C373.701 130.36 382.712 124.339 389.558 119.249C410.446 103.719 419.05 86.365 411.43 75.136C408.297 70.52 407.037 69.458 400.814 66.192C390.532 60.796 381.826 59.483 354.558 59.215C340.808 59.08 327.758 59.152 325.558 59.375ZM331.552 78.739C331.177 79.347 332.496 82.939 334.484 86.722C341.306 99.704 346.989 118.547 348.586 133.48L349.254 139.73H322.675H296.096L295.669 137.48C295.434 136.242 294.736 128.705 294.117 120.73C293.036 106.796 289.194 86.466 287.28 84.552C286.74 84.012 284.34 83.979 281.459 84.472C275.761 85.447 275.884 84.777 278.845 98.73C280.998 108.875 282.75 121.999 283.417 132.98L283.828 139.73H248.443H213.058V119.73C213.058 108.73 212.69 99.73 212.24 99.73C211.789 99.73 209.089 100.422 206.24 101.269L201.058 102.807V121.269V139.73H166.058H131.058V133.122V126.513L128.363 127.189C126.881 127.561 124.209 128.476 122.425 129.221C119.567 130.415 119.143 131.092 118.869 134.903L118.558 139.23L107.058 139.831C95.8063 140.419 95.3473 140.538 85.8083 145.307C80.4463 147.988 76.0583 150.521 76.0583 150.936C76.0583 151.351 85.6213 151.812 97.3083 151.96L118.558 152.23L119.188 163.23C119.899 175.625 122 188.553 125.671 203.121C127.042 208.56 127.952 213.565 127.692 214.242C127.432 214.919 126.044 215.768 124.608 216.128C120.401 217.184 102.808 224.872 99.7733 226.981C98.2403 228.046 96.3673 228.679 95.6103 228.388C93.5153 227.585 82.4573 210.364 77.5293 200.23C72.3943 189.673 68.6173 177.19 66.9493 165.264C66.2923 160.57 65.3003 156.73 64.7443 156.73C62.9883 156.73 55.3163 161.615 54.7483 163.095C54.1003 164.785 58.0673 182.852 60.9953 191.542C64.1653 200.952 67.5203 208.07 73.5083 218.087C88.4233 243.037 110.469 262.937 137.465 275.819C172.441 292.509 208.499 295.904 248.22 286.25C280.732 278.347 312.002 257.804 331.968 231.23C352.153 204.364 361.058 177.682 361.058 144.065C361.058 126.108 355.556 102.332 347.789 86.73L343.558 78.23L337.896 77.933C334.53 77.756 331.958 78.083 331.552 78.739ZM131.466 163.463C131.852 169.916 133.048 179.703 134.124 185.213C136.319 196.449 139.622 209.627 140.451 210.457C140.752 210.757 145.624 210.053 151.278 208.891C164.479 206.178 181.564 203.73 187.297 203.73C189.762 203.73 193.867 203.444 196.418 203.094L201.058 202.458V177.094V151.73H165.911H130.764L131.466 163.463ZM213.058 177.145V202.586L218.308 203.131C221.195 203.431 230.533 204.399 239.058 205.281C247.583 206.164 258.774 207.787 263.928 208.888C269.081 209.99 273.675 210.513 274.137 210.051C276.476 207.712 282.744 174.028 283.222 161.23L283.558 152.23L248.308 151.967L213.058 151.704V177.145ZM295.665 153.312C295.331 154.182 295.058 157.534 295.058 160.761C295.058 169.839 292.394 187.96 289.05 201.626C287.381 208.444 286.138 214.122 286.287 214.245C287.874 215.551 319.181 227.772 319.862 227.351C321.663 226.238 331.916 210.08 335.958 201.986C342.479 188.926 346.734 173.981 348.628 157.48L349.288 151.73H322.78C299.531 151.73 296.197 151.924 295.665 153.312ZM180.558 216.227C165.693 217.783 145.058 221.635 145.058 222.855C145.058 223.355 147.484 228.601 150.45 234.514C156.693 246.962 165.839 259.766 172.47 265.34C178.926 270.768 188.727 276.572 193.52 277.808C195.741 278.381 198.345 279.078 199.308 279.357C200.949 279.833 201.058 277.841 201.058 247.297V214.73L196.808 214.851C194.47 214.917 187.158 215.537 180.558 216.227ZM213.808 215.302C213.396 215.721 213.058 230.388 213.058 247.897C213.058 265.405 213.396 279.725 213.808 279.719C214.22 279.713 216.716 279.053 219.355 278.253C232.946 274.129 246.303 263.208 256.514 247.87C262.487 238.897 270.644 222.983 269.735 222.074C267.27 219.608 215.716 213.366 213.808 215.302ZM120.536 230.401C114.498 232.879 108.321 235.416 106.808 236.038C105.295 236.66 104.058 237.473 104.058 237.844C104.058 238.972 118.134 250.57 125.058 255.147C128.633 257.51 134.229 260.868 137.493 262.61C143.811 265.981 160.079 272.73 161.889 272.73C162.484 272.73 160.854 270.431 158.265 267.62C150.32 258.996 146.464 253.237 139.62 239.778C136.001 232.66 132.696 226.625 132.277 226.365C131.857 226.106 126.574 227.922 120.536 230.401ZM281.058 226.804C281.058 228.901 270.755 248.339 265.991 255.23C263.329 259.08 258.844 264.817 256.025 267.98C253.205 271.143 251.149 273.73 251.455 273.73C251.762 273.73 255.055 272.585 258.773 271.185C272.979 265.838 294.18 253.088 304.308 243.802C307.471 240.902 310.058 238.191 310.058 237.778C310.058 236.475 285.066 225.73 282.035 225.73C281.498 225.73 281.058 226.213 281.058 226.804Z"/>
</mask>
<path fill-rule="evenodd" clip-rule="evenodd" d="M192.054 0.794003C149.886 5.278 113.256 23.981 87.7443 54.054C75.7263 68.221 65.4403 86.25 60.1813 102.365C57.1723 111.587 53.6343 129.639 54.6383 130.644C54.9563 130.961 57.7683 129.81 60.8873 128.085C66.4843 124.99 66.5813 124.859 68.2873 118.09C72.5133 101.323 79.4793 85.756 88.8093 72.23C91.8443 67.83 94.6413 63.878 95.0253 63.447C95.4093 63.017 99.7363 64.639 104.641 67.052C109.545 69.465 116.483 72.474 120.058 73.74C123.633 75.005 126.958 76.393 127.447 76.824C127.954 77.271 127.187 82.192 125.657 88.296C124.184 94.175 123.227 99.233 123.531 99.536C124.544 100.549 135.026 96.658 135.954 94.924C136.457 93.984 137.555 90.587 138.394 87.375C139.233 84.163 140.178 81.277 140.495 80.96C140.812 80.643 146.849 81.6 153.911 83.086L166.752 85.788L178.655 82.224C193.296 77.84 193.448 77.787 192.897 77.236C192.651 76.989 186.256 76.101 178.687 75.262C165.892 73.844 146.325 70.33 145.253 69.258C144.612 68.617 148.524 59.547 152.711 51.967C163.986 31.555 181.058 16.436 196.836 12.891L201.058 11.943V43.45V74.957L205.686 74.263C208.231 73.881 210.931 73.332 211.686 73.043C212.807 72.612 213.058 66.958 213.058 42.123C213.058 18.457 213.335 11.738 214.308 11.764C217.048 11.84 229.997 17.583 235.12 20.996C238.111 22.988 242.674 26.781 245.26 29.424C249.487 33.745 259.69 48.375 264.34 56.782C266.09 59.945 266.222 59.993 271.695 59.428C274.761 59.112 277.536 58.585 277.864 58.257C279.392 56.729 265.482 34.581 256.215 23.788C253.826 21.006 252.286 18.73 252.792 18.73C254.275 18.73 265.896 23.624 273.52 27.458C283.473 32.465 289.118 36.223 300.829 45.643L311.078 53.887L317.568 53.192C321.137 52.81 324.058 52.166 324.058 51.76C324.058 51.355 319.819 46.923 314.638 41.911C283.998 12.27 235.889 -3.867 192.054 0.794003ZM152.898 22.055C135.779 28.96 117.41 40.538 107.735 50.52L103.911 54.464L118.105 60.144C125.911 63.267 132.406 65.69 132.537 65.526C132.669 65.363 135.062 60.505 137.855 54.73C144.305 41.393 149.82 33.08 157.894 24.521C161.417 20.786 164.133 17.736 163.929 17.743C163.725 17.75 158.761 19.691 152.898 22.055ZM325.558 59.375C274.228 64.578 218.991 76.611 161.139 95.193C108.608 112.066 55.1203 136.612 28.9693 155.846C1.25434 176.231 -6.7057 193.399 5.65529 206.127C13.1153 213.808 24.7793 217.361 47.8203 218.971C59.3643 219.777 64.3913 219.797 65.1513 219.037C66.3003 217.888 63.4023 211.081 60.8813 209.008C60.1533 208.41 53.4833 207.403 46.0583 206.772C26.8653 205.14 17.2833 202.055 13.5083 196.293C11.0973 192.615 14.1233 185.758 21.7053 177.722C28.8643 170.133 36.8103 164.407 55.0583 153.691C120.158 115.461 237.472 79.595 323.424 71.645C337.756 70.319 375.3 70.979 383.558 72.702C390.574 74.166 399.291 78.741 400.992 81.853C402.261 84.174 402.223 85.009 400.67 89.075C397.641 97.006 389.553 104.686 369.763 118.422C365.407 121.445 365.192 121.814 365.676 125.422C366.851 134.172 366.705 133.963 370.331 132.096C373.701 130.36 382.712 124.339 389.558 119.249C410.446 103.719 419.05 86.365 411.43 75.136C408.297 70.52 407.037 69.458 400.814 66.192C390.532 60.796 381.826 59.483 354.558 59.215C340.808 59.08 327.758 59.152 325.558 59.375ZM331.552 78.739C331.177 79.347 332.496 82.939 334.484 86.722C341.306 99.704 346.989 118.547 348.586 133.48L349.254 139.73H322.675H296.096L295.669 137.48C295.434 136.242 294.736 128.705 294.117 120.73C293.036 106.796 289.194 86.466 287.28 84.552C286.74 84.012 284.34 83.979 281.459 84.472C275.761 85.447 275.884 84.777 278.845 98.73C280.998 108.875 282.75 121.999 283.417 132.98L283.828 139.73H248.443H213.058V119.73C213.058 108.73 212.69 99.73 212.24 99.73C211.789 99.73 209.089 100.422 206.24 101.269L201.058 102.807V121.269V139.73H166.058H131.058V133.122V126.513L128.363 127.189C126.881 127.561 124.209 128.476 122.425 129.221C119.567 130.415 119.143 131.092 118.869 134.903L118.558 139.23L107.058 139.831C95.8063 140.419 95.3473 140.538 85.8083 145.307C80.4463 147.988 76.0583 150.521 76.0583 150.936C76.0583 151.351 85.6213 151.812 97.3083 151.96L118.558 152.23L119.188 163.23C119.899 175.625 122 188.553 125.671 203.121C127.042 208.56 127.952 213.565 127.692 214.242C127.432 214.919 126.044 215.768 124.608 216.128C120.401 217.184 102.808 224.872 99.7733 226.981C98.2403 228.046 96.3673 228.679 95.6103 228.388C93.5153 227.585 82.4573 210.364 77.5293 200.23C72.3943 189.673 68.6173 177.19 66.9493 165.264C66.2923 160.57 65.3003 156.73 64.7443 156.73C62.9883 156.73 55.3163 161.615 54.7483 163.095C54.1003 164.785 58.0673 182.852 60.9953 191.542C64.1653 200.952 67.5203 208.07 73.5083 218.087C88.4233 243.037 110.469 262.937 137.465 275.819C172.441 292.509 208.499 295.904 248.22 286.25C280.732 278.347 312.002 257.804 331.968 231.23C352.153 204.364 361.058 177.682 361.058 144.065C361.058 126.108 355.556 102.332 347.789 86.73L343.558 78.23L337.896 77.933C334.53 77.756 331.958 78.083 331.552 78.739ZM131.466 163.463C131.852 169.916 133.048 179.703 134.124 185.213C136.319 196.449 139.622 209.627 140.451 210.457C140.752 210.757 145.624 210.053 151.278 208.891C164.479 206.178 181.564 203.73 187.297 203.73C189.762 203.73 193.867 203.444 196.418 203.094L201.058 202.458V177.094V151.73H165.911H130.764L131.466 163.463ZM213.058 177.145V202.586L218.308 203.131C221.195 203.431 230.533 204.399 239.058 205.281C247.583 206.164 258.774 207.787 263.928 208.888C269.081 209.99 273.675 210.513 274.137 210.051C276.476 207.712 282.744 174.028 283.222 161.23L283.558 152.23L248.308 151.967L213.058 151.704V177.145ZM295.665 153.312C295.331 154.182 295.058 157.534 295.058 160.761C295.058 169.839 292.394 187.96 289.05 201.626C287.381 208.444 286.138 214.122 286.287 214.245C287.874 215.551 319.181 227.772 319.862 227.351C321.663 226.238 331.916 210.08 335.958 201.986C342.479 188.926 346.734 173.981 348.628 157.48L349.288 151.73H322.78C299.531 151.73 296.197 151.924 295.665 153.312ZM180.558 216.227C165.693 217.783 145.058 221.635 145.058 222.855C145.058 223.355 147.484 228.601 150.45 234.514C156.693 246.962 165.839 259.766 172.47 265.34C178.926 270.768 188.727 276.572 193.52 277.808C195.741 278.381 198.345 279.078 199.308 279.357C200.949 279.833 201.058 277.841 201.058 247.297V214.73L196.808 214.851C194.47 214.917 187.158 215.537 180.558 216.227ZM213.808 215.302C213.396 215.721 213.058 230.388 213.058 247.897C213.058 265.405 213.396 279.725 213.808 279.719C214.22 279.713 216.716 279.053 219.355 278.253C232.946 274.129 246.303 263.208 256.514 247.87C262.487 238.897 270.644 222.983 269.735 222.074C267.27 219.608 215.716 213.366 213.808 215.302ZM120.536 230.401C114.498 232.879 108.321 235.416 106.808 236.038C105.295 236.66 104.058 237.473 104.058 237.844C104.058 238.972 118.134 250.57 125.058 255.147C128.633 257.51 134.229 260.868 137.493 262.61C143.811 265.981 160.079 272.73 161.889 272.73C162.484 272.73 160.854 270.431 158.265 267.62C150.32 258.996 146.464 253.237 139.62 239.778C136.001 232.66 132.696 226.625 132.277 226.365C131.857 226.106 126.574 227.922 120.536 230.401ZM281.058 226.804C281.058 228.901 270.755 248.339 265.991 255.23C263.329 259.08 258.844 264.817 256.025 267.98C253.205 271.143 251.149 273.73 251.455 273.73C251.762 273.73 255.055 272.585 258.773 271.185C272.979 265.838 294.18 253.088 304.308 243.802C307.471 240.902 310.058 238.191 310.058 237.778C310.058 236.475 285.066 225.73 282.035 225.73C281.498 225.73 281.058 226.213 281.058 226.804Z" fill="#0EA5E9" stroke="#0EA5E9" stroke-width="2" mask="url(#path-2-inside-1_13_17)"/>
</svg>
