<svg width="472" height="253" viewBox="0 0 472 253" fill="none" xmlns="http://www.w3.org/2000/svg">
<path d="M172.543 45.0781C173.862 45.0781 175.253 45.1953 176.718 45.4297C178.183 45.6348 179.589 45.8984 180.937 46.2207C182.314 46.5137 183.09 46.6748 183.266 46.7041C183.5 46.792 183.735 47.0703 183.969 47.5391C184.204 47.9785 184.321 48.2715 184.321 48.418C184.379 48.8867 184.482 49.7217 184.628 50.9229C184.775 52.0947 184.907 53.1641 185.024 54.1309C185.17 55.0977 185.244 55.625 185.244 55.7129C185.244 56.6211 185.214 57.251 185.156 57.6025C185.097 57.9541 184.921 58.1299 184.628 58.1299C184.218 58.1299 183.793 57.9688 183.354 57.6465C182.915 57.2949 182.607 56.8262 182.431 56.2402C181.933 54.7754 181.215 53.4277 180.278 52.1973C179.34 50.9375 178.593 50.1318 178.037 49.7803C176.279 48.4033 174.155 47.7148 171.665 47.7148C168.676 47.7148 166.201 48.7109 164.238 50.7031C162.275 52.6953 161.293 55.2002 161.293 58.2178C161.293 59.7119 161.499 61.0303 161.909 62.1729C162.348 63.3154 163.198 64.502 164.458 65.7324C165.747 66.9336 166.86 67.8857 167.797 68.5889C168.735 69.292 170.419 70.4492 172.851 72.0605C173.261 72.3535 173.583 72.5732 173.818 72.7197C175.781 74.0381 177.421 75.2393 178.74 76.3232C180.058 77.4072 181.333 78.667 182.563 80.1025C183.793 81.5381 184.702 83.0908 185.288 84.7607C185.903 86.4014 186.21 88.2031 186.21 90.166C186.21 92.5098 185.566 94.8389 184.277 97.1533C183.017 99.4385 181.215 101.343 178.872 102.866C177.436 103.804 175.546 104.58 173.203 105.195C170.859 105.811 168.662 106.118 166.611 106.118C165.029 106.118 162.993 105.884 160.502 105.415C158.012 104.976 156.123 104.434 154.833 103.789C154.423 103.555 153.969 103.071 153.471 102.339C153.002 101.577 152.768 101.094 152.768 100.889C152.651 100.098 152.475 99.0723 152.241 97.8125C152.006 96.5234 151.801 95.4102 151.625 94.4727C151.479 93.5352 151.406 92.8613 151.406 92.4512C151.406 92.2754 151.567 91.9531 151.889 91.4844C152.241 90.9863 152.504 90.7373 152.68 90.7373C153.325 90.7373 154.423 92.4365 155.976 95.835C156.708 97.3877 157.807 98.7354 159.272 99.8779C160.766 101.021 162.231 101.841 163.667 102.339C165.131 102.808 166.479 103.042 167.709 103.042C170.844 103.042 173.437 102.031 175.488 100.01C177.539 97.959 178.564 95.3369 178.564 92.1436C178.564 90.0049 177.773 87.8662 176.191 85.7275C174.638 83.5596 171.679 81.084 167.314 78.3008C163.066 75.5469 159.829 72.7783 157.602 69.9951C155.375 67.2119 154.262 64.0332 154.262 60.459C154.262 58.3496 154.702 56.3428 155.581 54.4385C156.459 52.5049 157.675 50.8643 159.228 49.5166C162.509 46.5576 166.948 45.0781 172.543 45.0781ZM209.392 71.5332C209.422 72.3242 209.51 72.8223 209.656 73.0273C209.803 73.2324 210.052 73.335 210.403 73.335C211.282 73.335 215.53 73.291 223.147 73.2031C230.794 73.1152 237.708 73.0713 243.89 73.0713C244.388 73.0713 244.71 72.2949 244.856 70.7422C244.915 70.332 244.93 67.9004 244.9 63.4473C244.871 58.9648 244.798 55.9326 244.681 54.3506C244.534 52.6807 244.168 51.5527 243.582 50.9668C243.025 50.3516 241.736 49.7656 239.715 49.209C238.221 48.7988 237.474 48.2422 237.474 47.5391C237.474 46.8652 238.411 46.5283 240.286 46.5283C240.608 46.5283 242.015 46.5576 244.505 46.6162C246.995 46.6748 248.65 46.7041 249.471 46.7041C250.672 46.7041 252.283 46.6602 254.305 46.5723C256.355 46.4844 257.469 46.4404 257.644 46.4404C259.314 46.4404 260.149 46.7773 260.149 47.4512C260.149 48.0957 259.285 48.623 257.557 49.0332C255.799 49.4434 254.598 50.0439 253.953 50.835C253.308 51.626 252.942 52.7393 252.854 54.1748C252.386 59.0381 252.151 68.9111 252.151 83.7939C252.151 85.3174 252.21 87.8662 252.327 91.4404C252.444 94.9854 252.503 96.875 252.503 97.1094C252.561 98.0176 252.649 98.7207 252.767 99.2188C252.913 99.7168 253.206 100.156 253.645 100.537C254.114 100.889 254.598 101.167 255.096 101.372C255.623 101.548 256.473 101.812 257.644 102.163C259.021 102.632 259.71 103.203 259.71 103.877C259.71 104.521 258.875 104.844 257.205 104.844C256.824 104.844 255.74 104.8 253.953 104.712C252.166 104.624 250.76 104.58 249.734 104.58C249.06 104.58 247.273 104.668 244.373 104.844C241.502 105.02 239.773 105.107 239.187 105.107C237.693 105.107 236.946 104.785 236.946 104.141C236.946 103.408 237.605 102.866 238.924 102.515C241.326 101.812 242.82 100.977 243.406 100.01C243.992 99.043 244.358 96.9336 244.505 93.6816C244.739 88.6426 244.856 83.8086 244.856 79.1797C244.856 78.418 244.768 77.9199 244.593 77.6855C244.446 77.4219 244.183 77.29 243.802 77.29C240.169 77.29 235.335 77.2754 229.3 77.2461C223.294 77.1875 219.09 77.1582 216.687 77.1582C214.314 77.1289 212.19 77.1436 210.315 77.2021C210.169 77.2021 209.964 77.3779 209.7 77.7295C209.436 78.0811 209.305 78.418 209.305 78.7402C209.246 79.4434 209.217 80.9229 209.217 83.1787C209.217 85.4346 209.231 87.9248 209.261 90.6494C209.29 93.3447 209.305 94.8682 209.305 95.2197C209.363 97.3584 209.715 98.9258 210.359 99.9219C211.033 100.889 212.308 101.665 214.183 102.251C215.179 102.515 215.867 102.778 216.248 103.042C216.629 103.276 216.834 103.613 216.863 104.053C216.892 104.258 216.761 104.434 216.468 104.58C216.204 104.727 215.882 104.814 215.501 104.844C215.12 104.902 214.71 104.932 214.27 104.932C214.153 104.932 213.523 104.902 212.381 104.844C211.267 104.785 209.978 104.727 208.514 104.668C207.049 104.609 205.848 104.58 204.91 104.58C204.295 104.58 202.933 104.639 200.823 104.756C198.714 104.873 197.102 104.932 195.989 104.932C194.202 104.932 193.308 104.639 193.308 104.053C193.308 103.262 193.997 102.69 195.374 102.339C197.63 101.753 199.095 101.123 199.768 100.449C200.442 99.7754 200.867 98.5449 201.043 96.7578C201.57 89.375 201.834 79.8682 201.834 68.2373C201.834 68.0908 201.849 67.0361 201.878 65.0732C201.907 63.0811 201.922 61.0889 201.922 59.0967C201.922 57.1045 201.892 55.5225 201.834 54.3506C201.746 52.71 201.424 51.5381 200.867 50.835C200.31 50.1318 199.139 49.5898 197.351 49.209C195.652 48.8867 194.803 48.3301 194.803 47.5391C194.803 47.2461 195.052 47.0117 195.55 46.8359C196.077 46.6309 196.707 46.5283 197.439 46.5283C198.289 46.5283 199.666 46.5576 201.57 46.6162C203.504 46.6748 204.851 46.7041 205.613 46.7041C207.019 46.7041 208.66 46.6748 210.535 46.6162C212.41 46.5576 213.626 46.5283 214.183 46.5283C215.091 46.5283 215.794 46.6309 216.292 46.8359C216.79 47.0117 217.039 47.2461 217.039 47.5391C217.039 47.9785 216.834 48.3301 216.424 48.5938C216.043 48.8281 215.384 49.0332 214.446 49.209C212.454 49.5898 211.194 50.1611 210.667 50.9229C210.14 51.6846 209.803 53.1055 209.656 55.1855C209.539 56.5625 209.451 59.4043 209.392 63.7109C209.334 68.0176 209.334 70.625 209.392 71.5332ZM283.771 46.7041H296.998C301.158 46.7041 303.912 46.6162 305.26 46.4404C305.377 46.4111 305.524 46.5137 305.7 46.748C305.905 46.9824 306.036 47.2168 306.095 47.4512C306.095 49.0332 306.124 50.7471 306.183 52.5928C306.242 54.4385 306.271 55.5664 306.271 55.9766C306.271 56.6211 306.139 57.1777 305.875 57.6465C305.612 58.0859 305.289 58.3057 304.908 58.3057C304.235 58.3057 303.751 57.5879 303.458 56.1523C302.902 53.9258 302.169 52.417 301.261 51.626C300.353 50.8057 299.078 50.2783 297.438 50.0439C296.266 49.8682 294.332 49.751 291.637 49.6924C288.942 49.6045 286.613 49.6045 284.65 49.6924C284.562 49.6924 284.43 49.751 284.254 49.8682C284.078 49.9854 283.888 50.249 283.683 50.6592C283.478 51.0693 283.346 51.582 283.287 52.1973C283.2 53.3691 283.112 56.9287 283.024 62.876C282.936 68.7939 282.936 72.0752 283.024 72.7197C283.17 73.3057 283.39 73.5986 283.683 73.5986H289.528C291.08 73.5986 292.282 73.5986 293.131 73.5986C294.01 73.5693 294.845 73.4814 295.636 73.335C296.427 73.1885 296.984 73.0566 297.306 72.9395C297.658 72.793 298.024 72.5146 298.405 72.1045C298.785 71.665 299.049 71.2695 299.196 70.918C299.371 70.5371 299.62 69.9365 299.943 69.1162C300.441 67.8564 300.983 67.2266 301.569 67.2266C301.862 67.2266 302.067 67.4609 302.184 67.9297C302.33 68.3691 302.374 68.7939 302.316 69.2041C302.111 72.1338 302.008 74.3018 302.008 75.708C302.008 76.6455 302.052 77.7441 302.14 79.0039C302.257 80.2637 302.316 80.9961 302.316 81.2012C302.345 81.9922 302.257 82.6221 302.052 83.0908C301.876 83.5596 301.627 83.7939 301.305 83.7939C301.012 83.7939 300.719 83.6035 300.426 83.2227C300.133 82.8125 299.913 82.3438 299.767 81.8164C299.415 80.6738 299.122 79.8535 298.888 79.3555C298.683 78.8574 298.302 78.418 297.745 78.0371C297.218 77.6562 296.603 77.4219 295.9 77.334C295.226 77.2461 294.142 77.1729 292.648 77.1143C290.714 76.9971 287.755 76.9385 283.771 76.9385C283.624 76.9385 283.449 77.0557 283.243 77.29C283.038 77.4951 282.936 77.6562 282.936 77.7734C282.76 78.7109 282.672 83.4131 282.672 91.8799C282.672 95.1611 282.98 97.6514 283.595 99.3506C283.947 100.435 284.518 101.094 285.309 101.328C287.887 101.768 290.612 101.987 293.483 101.987C297.526 101.987 300.367 101.768 302.008 101.328C303.561 100.947 304.938 100.259 306.139 99.2627C307.34 98.2373 308.453 96.7139 309.479 94.6924C310.358 92.9932 311.061 92.1436 311.588 92.1436C311.881 92.1436 312.086 92.4219 312.203 92.9785C312.35 93.5059 312.379 94.0479 312.291 94.6045C312.233 95.0439 311.735 96.6699 310.797 99.4824C309.889 102.295 309.303 103.877 309.039 104.229C308.893 104.434 308.644 104.653 308.292 104.888C307.97 105.151 307.706 105.283 307.501 105.283C307.472 105.283 306.007 105.225 303.107 105.107C300.206 104.99 296.427 104.873 291.769 104.756C287.111 104.639 282.614 104.58 278.278 104.58C276.578 104.58 274.703 104.653 272.653 104.8C270.631 104.946 269.108 105.02 268.082 105.02C267.116 105.02 266.427 104.946 266.017 104.8C265.607 104.653 265.402 104.346 265.402 103.877C265.402 103.32 266.237 102.837 267.907 102.427C269.225 102.104 270.192 101.841 270.807 101.636C271.451 101.401 272.081 101.05 272.697 100.581C273.312 100.112 273.737 99.5117 273.971 98.7793C274.235 98.0176 274.41 97.0361 274.498 95.835C274.967 89.126 275.201 80.6152 275.201 70.3027C275.201 61.0449 275.172 55.9766 275.114 55.0977C275.026 53.1055 274.645 51.7285 273.971 50.9668C273.326 50.1758 272.023 49.5605 270.06 49.1211C269.093 48.8867 268.419 48.667 268.038 48.4619C267.658 48.2568 267.467 47.9785 267.467 47.627C267.467 47.2461 267.716 46.9385 268.214 46.7041C268.712 46.4697 269.298 46.3525 269.972 46.3525C271.232 46.3525 273.297 46.4111 276.168 46.5283C279.069 46.6455 281.603 46.7041 283.771 46.7041ZM359.38 61.2939C359.38 63.7256 358.706 66.0986 357.358 68.4131C356.04 70.7275 354.282 72.5586 352.085 73.9062C352.026 73.9355 351.601 74.1553 350.81 74.5654C350.049 74.9463 349.55 75.2246 349.316 75.4004C349.17 75.4883 349.052 75.6934 348.965 76.0156C348.877 76.3379 348.877 76.5869 348.965 76.7627C349.521 78.1396 351.367 81.2158 354.502 85.9912C357.636 90.7373 360.434 94.4727 362.895 97.1973C364.126 98.6914 365.415 99.8633 366.762 100.713C368.139 101.533 369.795 102.134 371.728 102.515C372.05 102.603 372.373 102.793 372.695 103.086C373.017 103.379 373.178 103.613 373.178 103.789C373.178 104.141 372.754 104.521 371.904 104.932C370.791 105.371 369.135 105.591 366.938 105.591C364.829 105.591 362.632 105.034 360.346 103.921C358.061 102.778 356.274 101.372 354.985 99.7021C352.114 95.7764 348.335 90.1367 343.647 82.7832C341.948 80.2637 340.747 78.7695 340.044 78.3008C339.839 78.0957 339.033 77.8467 337.627 77.5537C336.22 77.2607 334.902 77.1143 333.672 77.1143C333.408 77.1143 333.159 77.2607 332.925 77.5537C332.69 77.8174 332.573 78.0371 332.573 78.2129C332.514 79.0332 332.529 81.6553 332.617 86.0791C332.705 90.5029 332.807 93.9453 332.925 96.4062C333.012 98.3105 333.408 99.6729 334.111 100.493C334.843 101.284 336.25 101.929 338.33 102.427C339.765 102.837 340.483 103.35 340.483 103.965C340.483 104.346 340.219 104.624 339.692 104.8C339.165 105.005 338.711 105.107 338.33 105.107C337.275 105.107 335.634 105.02 333.408 104.844C331.181 104.668 328.955 104.58 326.728 104.58C326.142 104.58 324.853 104.639 322.861 104.756C320.869 104.873 319.726 104.932 319.433 104.932C317.881 104.932 317.104 104.521 317.104 103.701C317.104 103.262 317.661 102.852 318.774 102.471C318.921 102.412 319.023 102.368 319.082 102.339C320.078 102.017 320.796 101.782 321.235 101.636C321.675 101.46 322.173 101.226 322.729 100.933C323.315 100.64 323.711 100.347 323.916 100.054C324.15 99.7314 324.355 99.3359 324.531 98.8672C324.736 98.3691 324.868 97.7832 324.926 97.1094C325.278 91.5723 325.454 85.6689 325.454 79.3994C325.454 65.8643 325.278 57.3389 324.926 53.8232C324.751 52.2412 324.384 51.2451 323.828 50.835C323.271 50.3955 321.894 49.8975 319.697 49.3408C318.261 48.96 317.544 48.4473 317.544 47.8027C317.544 47.0703 318.349 46.7041 319.961 46.7041H325.014C326.01 46.7041 328.252 46.6309 331.738 46.4844C335.224 46.3379 337.846 46.2646 339.604 46.2646C342.944 46.2646 345.8 46.543 348.174 47.0996C350.547 47.6562 352.583 48.6377 354.282 50.0439C355.776 51.2744 356.992 52.9297 357.929 55.0098C358.896 57.0605 359.38 59.1553 359.38 61.2939ZM351.382 61.4697C351.382 60.2686 351.001 58.7744 350.239 56.9873C349.507 55.1709 348.54 53.6621 347.339 52.4609C346.284 51.4648 344.907 50.6445 343.208 50C341.508 49.3555 339.912 49.0332 338.418 49.0332C338.008 49.0332 337.29 49.1064 336.264 49.2529C335.268 49.3701 334.55 49.5166 334.111 49.6924C333.906 49.7803 333.672 50.0732 333.408 50.5713C333.144 51.04 333.012 51.377 333.012 51.582C332.866 53.252 332.749 57.1338 332.661 63.2275C332.602 69.292 332.632 72.749 332.749 73.5986C332.837 73.9502 333.027 74.2725 333.32 74.5654C333.642 74.8291 333.935 74.9609 334.199 74.9609C336.543 74.9609 338.799 74.6973 340.967 74.1699C343.134 73.6426 344.629 73.1299 345.449 72.6318C346.943 71.665 348.305 70.2002 349.536 68.2373C350.766 66.2744 351.382 64.0186 351.382 61.4697ZM403.831 45.0781C409.544 45.0781 414.774 46.3672 419.52 48.9453C424.295 51.4941 428.074 55.0537 430.858 59.624C433.67 64.1943 435.076 69.2773 435.076 74.873C435.076 80.7617 433.86 85.9326 431.429 90.3857C428.997 94.8389 425.95 98.3691 422.288 100.977C419.71 102.793 416.78 104.111 413.499 104.932C410.247 105.781 407.274 106.206 404.578 106.206C400.037 106.206 395.687 105.283 391.526 103.438C387.396 101.592 383.939 99.0869 381.155 95.9229C378.753 93.2568 376.907 90.1807 375.618 86.6943C374.329 83.1787 373.685 79.4873 373.685 75.6201C373.685 65.7471 377.596 57.6758 385.418 51.4062C387.645 49.5898 390.486 48.0811 393.943 46.8799C397.43 45.6787 400.726 45.0781 403.831 45.0781ZM401.854 48.0664C399.891 48.0664 397.708 48.5498 395.306 49.5166C392.933 50.4541 390.984 51.6846 389.461 53.208C384.774 57.7783 382.43 64.8242 382.43 74.3457C382.43 77.0117 382.796 79.7217 383.528 82.4756C384.29 85.2295 385.389 87.8369 386.824 90.2979C388.289 92.7295 389.988 94.9121 391.922 96.8457C393.856 98.7793 396.111 100.317 398.69 101.46C401.268 102.573 403.948 103.13 406.732 103.13C412.005 103.13 415.96 101.694 418.597 98.8232C420.677 96.9482 422.464 94.1797 423.958 90.5176C425.482 86.8262 426.243 82.5195 426.243 77.5977C426.243 72.7051 425.262 68.0469 423.299 63.623C421.365 59.1699 418.729 55.5957 415.389 52.9004C413.602 51.4355 411.434 50.2637 408.885 49.3848C406.336 48.5059 403.992 48.0664 401.854 48.0664Z" fill="#C4A169"/>
<path d="M218.31 169.58L217.67 167.56H210.83L210.19 169.58H203.95L210.01 152.78H218.49L224.57 169.58H218.31ZM212.25 163.1H216.25L214.77 158.46H213.73L212.25 163.1ZM251.592 170.14C245.852 170.14 242.072 166.6 242.072 161.18C242.072 155.76 245.852 152.22 251.592 152.22C255.812 152.22 260.172 154.08 260.632 160H254.872C254.492 158.26 253.312 157.44 251.592 157.44C249.652 157.44 248.072 158.86 248.072 161.18C248.072 163.48 249.652 164.92 251.592 164.92C253.312 164.92 254.492 164.1 254.872 162.32H260.632C260.172 168.28 255.872 170.14 251.592 170.14ZM292.875 169.58L292.235 167.56H285.395L284.755 169.58H278.515L284.575 152.78H293.055L299.135 169.58H292.875ZM286.815 163.1H290.815L289.335 158.46H288.295L286.815 163.1ZM327.234 152.78C334.174 152.78 336.554 156.32 336.554 161.18C336.554 166.02 334.174 169.58 327.234 169.58H318.554V152.78H327.234ZM327.234 164.52C329.014 164.52 330.474 163.68 330.474 161.18C330.474 158.66 329.014 157.84 327.234 157.84H324.634L324.614 164.52H327.234ZM356.375 169.58V152.78H371.835V157.6H362.415V159.24H371.475V163.12H362.415V164.74H371.835V169.58H356.375ZM391.877 169.58V152.78H399.477L401.737 161.62H402.177L404.437 152.78H412.037V169.58H406.277V163.02H405.817L404.177 169.58H399.737L398.097 163.02H397.637V169.58H391.877ZM451.105 152.78L444.245 164.42V169.58H438.185V164.36L431.345 152.78H437.705L441.005 158.7H441.465L444.765 152.78H451.105Z" fill="#C4A169"/>
<path d="M331.89 2.58007C321.89 2.61603 321.497 19.58 332.194 19.58C342.89 19.58 341.89 2.54412 331.89 2.58007Z" fill="#C4A169"/>
<path d="M44.3903 136.58L45.1216 134.719C45.1054 134.712 45.0891 134.706 45.0728 134.7L44.3903 136.58ZM172.892 135.58L174.553 134.466L172.892 135.58ZM433.392 196.08L435.037 197.218L433.392 196.08ZM77.8026 140.037C78.8835 139.81 79.5752 138.749 79.3477 137.668C79.1201 136.587 78.0595 135.896 76.9786 136.123L77.8026 140.037ZM45.0728 134.7C27.2286 128.223 16.007 117.935 9.89307 106.269C3.76749 94.5807 2.67958 81.337 5.41946 68.8203C10.9305 43.644 31.6922 22.0801 56.8914 22.0801V18.0801C29.2905 18.0801 7.30153 41.5163 1.51198 67.965C-1.39844 81.2608 -0.27411 95.4859 6.35014 108.126C12.986 120.788 25.0519 131.688 43.7079 138.46L45.0728 134.7ZM56.8914 22.0801C69.8044 22.0801 80.26 24.6739 89.4558 29.6225C98.6729 34.5827 106.739 41.9701 114.781 51.7271C122.832 61.4958 130.792 73.556 139.84 87.8082C148.869 102.032 158.967 118.416 171.231 136.694L174.553 134.466C162.326 116.244 152.279 99.9403 143.217 85.6644C134.172 71.4166 126.094 59.1644 117.867 49.1831C109.631 39.1901 101.181 31.3901 91.3513 26.1002C81.5003 20.7989 70.3783 18.0801 56.8914 18.0801V22.0801ZM435.037 197.218C468.066 149.452 461.688 97.823 437.393 59.4478C413.178 21.1966 370.886 -4.27789 331.644 0.595317L332.137 4.56483C369.394 -0.0619411 410.354 24.2136 434.014 61.5874C457.596 98.8372 463.718 148.708 431.747 194.943L435.037 197.218ZM171.231 136.694C190.358 165.201 225.48 208.56 264.844 232.783L266.94 229.377C228.304 205.6 193.566 162.803 174.553 134.466L171.231 136.694ZM264.844 232.783C284.669 244.984 314.55 254.327 345.816 251.515C377.165 248.695 409.841 233.654 435.037 197.218L431.747 194.943C407.261 230.352 375.687 244.812 345.457 247.531C315.144 250.257 286.115 241.176 266.94 229.377L264.844 232.783ZM76.9786 136.123C67.7562 138.065 59.7508 137.7 54.0599 136.852C51.2155 136.428 48.9547 135.885 47.4167 135.452C46.6479 135.235 46.0605 135.047 45.672 134.915C45.4777 134.849 45.3333 134.797 45.2408 134.763C45.1946 134.746 45.1613 134.734 45.1414 134.726C45.1314 134.722 45.1247 134.72 45.1214 134.719C45.1198 134.718 45.119 134.718 45.119 134.718C45.119 134.718 45.1192 134.718 45.1197 134.718C45.1199 134.718 45.1204 134.718 45.1205 134.718C45.121 134.718 45.1216 134.719 44.3903 136.58C43.659 138.442 43.6597 138.442 43.6604 138.442C43.6608 138.442 43.6616 138.443 43.6622 138.443C43.6635 138.443 43.665 138.444 43.6667 138.445C43.6702 138.446 43.6745 138.448 43.6796 138.45C43.6899 138.454 43.7036 138.459 43.7207 138.465C43.7549 138.478 43.8026 138.496 43.8635 138.519C43.9854 138.563 44.1603 138.626 44.386 138.702C44.8372 138.856 45.492 139.066 46.3326 139.302C48.0133 139.775 50.44 140.357 53.4707 140.808C59.5298 141.711 68.0245 142.096 77.8026 140.037L76.9786 136.123ZM331.883 0.580085C328.753 0.591339 326.291 1.9542 324.653 4.00234C323.052 6.00347 322.287 8.58549 322.281 11.0883C322.274 13.5918 323.027 16.1897 324.684 18.2008C326.382 20.2615 328.934 21.58 332.194 21.58V17.58C330.106 17.58 328.695 16.7781 327.771 15.6569C326.806 14.4862 326.276 12.8407 326.281 11.0988C326.285 9.3561 326.825 7.69037 327.777 6.50064C328.69 5.3579 330.028 4.58678 331.897 4.58006L331.883 0.580085ZM332.194 21.58C335.459 21.58 337.991 20.2509 339.638 18.1542C341.24 16.1146 341.898 13.494 341.802 10.99C341.614 6.08587 338.342 0.556862 331.883 0.580085L331.897 4.58006C335.438 4.56733 337.666 7.53831 337.805 11.1431C337.872 12.8937 337.398 14.5297 336.492 15.6833C335.631 16.7797 334.277 17.58 332.194 17.58V21.58Z" fill="#C4A169"/>
</svg>
